<?xml version="1.0" encoding="UTF-8" standalone="no"?>
<!DOCTYPE svg PUBLIC "-//W3C//DTD SVG 1.1//EN" "http://www.w3.org/Graphics/SVG/1.1/DTD/svg11.dtd">
<svg version="1.1" xmlns="http://www.w3.org/2000/svg" xmlns:xlink="http://www.w3.org/1999/xlink" preserveAspectRatio="xMidYMid meet" viewBox="0 0 675 675" width="675" height="675"><defs><path d="M339.87 234.73L342.02 234.94L344.15 235.25L346.24 235.63L348.31 236.1L350.35 236.64L352.35 237.27L354.32 237.96L356.25 238.74L358.14 239.58L360 240.5L361.81 241.48L363.58 242.54L365.3 243.65L366.98 244.83L368.61 246.08L370.19 247.38L371.72 248.74L373.19 250.16L374.61 251.64L375.97 253.16L377.28 254.74L378.52 256.37L379.7 258.05L380.82 259.78L381.87 261.55L382.86 263.36L383.77 265.21L384.62 267.11L385.39 269.04L386.09 271.01L386.71 273.01L387.26 275.05L387.72 277.11L388.11 279.21L388.41 281.33L388.63 283.48L388.76 285.66L388.81 287.85L388.76 290.05L388.63 292.23L388.41 294.38L388.11 296.5L387.72 298.6L387.26 300.66L386.71 302.7L386.09 304.7L385.39 306.67L384.62 308.6L383.77 310.5L382.86 312.35L381.87 314.16L380.82 315.93L379.7 317.66L378.52 319.34L377.28 320.97L375.97 322.55L374.61 324.07L373.19 325.55L371.72 326.97L370.19 328.33L368.61 329.63L366.98 330.88L365.3 332.06L363.58 333.17L361.81 334.23L360 335.21L358.14 336.13L356.25 336.97L354.32 337.74L352.35 338.44L350.35 339.07L348.31 339.61L346.24 340.08L344.15 340.46L342.02 340.77L339.87 340.98L337.7 341.12L335.5 341.16L333.3 341.12L331.13 340.98L328.98 340.77L326.85 340.46L324.76 340.08L322.69 339.61L320.65 339.07L318.65 338.44L316.68 337.74L314.75 336.97L312.86 336.13L311 335.21L309.19 334.23L307.42 333.17L305.7 332.06L304.02 330.88L302.39 329.63L300.81 328.33L299.28 326.97L297.81 325.55L296.39 324.07L295.03 322.55L293.72 320.97L292.48 319.34L291.3 317.66L290.18 315.93L289.13 314.16L288.14 312.35L287.23 310.5L286.38 308.6L285.61 306.67L284.91 304.7L284.29 302.7L283.74 300.66L283.28 298.6L282.89 296.5L282.59 294.38L282.37 292.23L282.24 290.05L282.19 287.85L282.24 285.66L282.38 283.48L282.6 281.34L282.9 279.21L283.29 277.12L283.76 275.05L284.3 273.02L284.93 271.01L285.63 269.05L286.4 267.12L287.25 265.22L288.16 263.37L289.15 261.56L290.2 259.79L291.32 258.07L292.5 256.39L293.74 254.76L295.04 253.18L296.41 251.65L297.82 250.18L299.3 248.76L300.83 247.4L302.4 246.1L304.03 244.85L305.71 243.67L307.43 242.55L309.2 241.5L311.02 240.52L312.87 239.6L314.76 238.75L316.69 237.98L318.66 237.28L320.66 236.66L322.7 236.11L324.76 235.64L326.86 235.26L328.98 234.95L331.13 234.73L333.3 234.6L335.5 234.55L337.7 234.59L339.87 234.73ZM332.88 255.98L331.59 256.11L330.31 256.29L329.05 256.52L327.81 256.8L326.59 257.13L325.39 257.5L324.21 257.92L323.05 258.38L321.91 258.89L320.8 259.44L319.71 260.03L318.65 260.66L317.62 261.33L316.61 262.04L315.63 262.79L314.69 263.57L313.77 264.39L312.88 265.24L312.03 266.12L311.22 267.04L310.43 267.99L309.69 268.97L308.98 269.97L308.31 271.01L307.68 272.07L307.09 273.16L306.54 274.27L306.03 275.41L305.57 276.56L305.15 277.75L304.77 278.95L304.45 280.17L304.17 281.41L303.93 282.67L303.75 283.94L303.62 285.23L303.54 286.54L303.52 287.85L303.54 289.17L303.62 290.48L303.75 291.77L303.93 293.04L304.17 294.3L304.45 295.54L304.77 296.76L305.15 297.96L305.57 299.14L306.03 300.3L306.54 301.44L307.09 302.55L307.68 303.64L308.31 304.7L308.98 305.74L309.69 306.74L310.43 307.72L311.22 308.67L312.03 309.59L312.88 310.47L313.77 311.32L314.69 312.14L315.63 312.92L316.61 313.67L317.62 314.38L318.65 315.05L319.71 315.68L320.8 316.27L321.91 316.82L323.05 317.33L324.21 317.79L325.39 318.21L326.59 318.58L327.81 318.91L329.05 319.19L330.31 319.42L331.59 319.6L332.88 319.73L334.18 319.81L335.5 319.84L336.82 319.81L338.12 319.73L339.41 319.6L340.69 319.42L341.95 319.19L343.19 318.91L344.41 318.58L345.61 318.21L346.79 317.79L347.95 317.33L349.09 316.82L350.2 316.27L351.29 315.68L352.35 315.05L353.38 314.38L354.39 313.67L355.37 312.92L356.31 312.14L357.23 311.32L358.12 310.47L358.97 309.59L359.78 308.67L360.57 307.72L361.31 306.74L362.02 305.74L362.69 304.7L363.32 303.64L363.91 302.55L364.46 301.44L364.97 300.3L365.43 299.14L365.85 297.96L366.23 296.76L366.55 295.54L366.83 294.3L367.07 293.04L367.25 291.77L367.38 290.48L367.46 289.17L367.48 287.85L367.46 286.54L367.38 285.23L367.25 283.94L367.07 282.67L366.83 281.41L366.55 280.17L366.23 278.95L365.85 277.75L365.43 276.56L364.97 275.41L364.46 274.27L363.91 273.16L363.32 272.07L362.69 271.01L362.02 269.97L361.31 268.97L360.57 267.99L359.78 267.04L358.97 266.12L358.12 265.24L357.23 264.39L356.31 263.57L355.37 262.79L354.39 262.04L353.38 261.33L352.35 260.66L351.29 260.03L350.2 259.44L349.09 258.89L347.95 258.38L346.79 257.92L345.61 257.5L344.41 257.13L343.19 256.8L341.95 256.52L340.69 256.29L339.41 256.11L338.12 255.98L336.82 255.9L335.5 255.87L334.18 255.9L332.88 255.98Z" id="f3zjzxudGe"></path><linearGradient id="gradienta1yKSKBtBc" gradientUnits="userSpaceOnUse" x1="393.74" y1="354.2" x2="282.36" y2="210.32"><stop style="stop-color: #003f8a;stop-opacity: 1" offset="0%"></stop><stop style="stop-color: #00d7df;stop-opacity: 1" offset="51.800000000000004%"></stop><stop style="stop-color: #006df0;stop-opacity: 1" offset="100%"></stop></linearGradient><path d="M531.77 234.73L533.93 234.94L536.05 235.25L538.15 235.63L540.21 236.1L542.25 236.64L544.25 237.27L546.22 237.96L548.15 238.74L550.05 239.58L551.9 240.5L553.71 241.48L555.48 242.54L557.21 243.65L558.88 244.83L560.51 246.08L562.09 247.38L563.62 248.74L565.1 250.16L566.51 251.64L567.88 253.16L569.18 254.74L570.42 256.37L571.61 258.05L572.72 259.78L573.77 261.55L574.76 263.36L575.68 265.21L576.52 267.11L577.29 269.04L577.99 271.01L578.61 273.01L579.16 275.05L579.63 277.11L580.01 279.21L580.31 281.33L580.53 283.48L580.67 285.66L580.71 287.85L580.67 290.05L580.53 292.23L580.31 294.38L580.01 296.5L579.63 298.6L579.16 300.66L578.61 302.7L577.99 304.7L577.29 306.67L576.52 308.6L575.68 310.5L574.76 312.35L573.77 314.16L572.72 315.93L571.61 317.66L570.42 319.34L569.18 320.97L567.88 322.55L566.51 324.07L565.1 325.55L563.62 326.97L562.09 328.33L560.51 329.63L558.88 330.88L557.21 332.06L555.48 333.17L553.71 334.23L551.9 335.21L550.05 336.13L548.15 336.97L546.22 337.74L544.25 338.44L542.25 339.07L540.21 339.61L538.15 340.08L536.05 340.46L533.93 340.77L531.77 340.98L529.6 341.12L527.4 341.16L525.21 341.12L523.03 340.98L520.88 340.77L518.76 340.46L516.66 340.08L514.59 339.61L512.56 339.07L510.56 338.44L508.59 337.74L506.65 336.97L504.76 336.13L502.91 335.21L501.09 334.23L499.32 333.17L497.6 332.06L495.92 330.88L494.29 329.63L492.71 328.33L491.18 326.97L489.71 325.55L488.29 324.07L486.93 322.55L485.63 320.97L484.38 319.34L483.2 317.66L482.08 315.93L481.03 314.16L480.05 312.35L479.13 310.5L478.29 308.6L477.51 306.67L476.81 304.7L476.19 302.7L475.65 300.66L475.18 298.6L474.79 296.5L474.49 294.38L474.27 292.23L474.14 290.05L474.1 287.85L474.14 285.66L474.28 283.48L474.5 281.34L474.8 279.21L475.19 277.12L475.66 275.05L476.21 273.02L476.83 271.01L477.53 269.05L478.3 267.12L479.15 265.22L480.07 263.37L481.05 261.56L482.1 259.79L483.22 258.07L484.4 256.39L485.64 254.76L486.95 253.18L488.31 251.65L489.73 250.18L491.2 248.76L492.73 247.4L494.31 246.1L495.94 244.85L497.61 243.67L499.34 242.55L501.11 241.5L502.92 240.52L504.77 239.6L506.66 238.75L508.6 237.98L510.56 237.28L512.56 236.66L514.6 236.11L516.67 235.64L518.76 235.26L520.88 234.95L523.03 234.73L525.21 234.6L527.4 234.55L529.6 234.59L531.77 234.73ZM524.78 255.98L523.49 256.11L522.22 256.29L520.96 256.52L519.72 256.8L518.5 257.13L517.29 257.5L516.11 257.92L514.95 258.38L513.82 258.89L512.71 259.44L511.62 260.03L510.56 260.66L509.52 261.33L508.51 262.04L507.54 262.79L506.59 263.57L505.67 264.39L504.79 265.24L503.94 266.12L503.12 267.04L502.34 267.99L501.59 268.97L500.88 269.97L500.21 271.01L499.58 272.07L498.99 273.16L498.44 274.27L497.93 275.41L497.47 276.56L497.05 277.75L496.68 278.95L496.35 280.17L496.07 281.41L495.84 282.67L495.66 283.94L495.53 285.23L495.45 286.54L495.42 287.85L495.45 289.17L495.53 290.48L495.66 291.77L495.84 293.04L496.07 294.3L496.35 295.54L496.68 296.76L497.05 297.96L497.47 299.14L497.93 300.3L498.44 301.44L498.99 302.55L499.58 303.64L500.21 304.7L500.88 305.74L501.59 306.74L502.34 307.72L503.12 308.67L503.94 309.59L504.79 310.47L505.67 311.32L506.59 312.14L507.54 312.92L508.51 313.67L509.52 314.38L510.56 315.05L511.62 315.68L512.71 316.27L513.82 316.82L514.95 317.33L516.11 317.79L517.29 318.21L518.5 318.58L519.72 318.91L520.96 319.19L522.22 319.42L523.49 319.6L524.78 319.73L526.08 319.81L527.4 319.84L528.72 319.81L530.03 319.73L531.32 319.6L532.59 319.42L533.85 319.19L535.09 318.91L536.31 318.58L537.51 318.21L538.69 317.79L539.85 317.33L540.99 316.82L542.1 316.27L543.19 315.68L544.25 315.05L545.29 314.38L546.29 313.67L547.27 312.92L548.22 312.14L549.13 311.32L550.02 310.47L550.87 309.59L551.69 308.67L552.47 307.72L553.22 306.74L553.92 305.74L554.59 304.7L555.23 303.64L555.82 302.55L556.37 301.44L556.87 300.3L557.34 299.14L557.76 297.96L558.13 296.76L558.46 295.54L558.74 294.3L558.97 293.04L559.15 291.77L559.28 290.48L559.36 289.17L559.39 287.85L559.36 286.54L559.28 285.23L559.15 283.94L558.97 282.67L558.74 281.41L558.46 280.17L558.13 278.95L557.76 277.75L557.34 276.56L556.87 275.41L556.37 274.27L555.82 273.16L555.23 272.07L554.59 271.01L553.92 269.97L553.22 268.97L552.47 267.99L551.69 267.04L550.87 266.12L550.02 265.24L549.13 264.39L548.22 263.57L547.27 262.79L546.29 262.04L545.29 261.33L544.25 260.66L543.19 260.03L542.1 259.44L540.99 258.89L539.85 258.38L538.69 257.92L537.51 257.5L536.31 257.13L535.09 256.8L533.85 256.52L532.59 256.29L531.32 256.11L530.03 255.98L528.72 255.9L527.4 255.87L526.08 255.9L524.78 255.98Z" id="azDS6T6ZA"></path><linearGradient id="gradienta11YtpWu2X" gradientUnits="userSpaceOnUse" x1="585.64" y1="354.2" x2="474.26" y2="210.32"><stop style="stop-color: #003f8a;stop-opacity: 1" offset="0%"></stop><stop style="stop-color: #00d7df;stop-opacity: 1" offset="51.800000000000004%"></stop><stop style="stop-color: #006df0;stop-opacity: 1" offset="100%"></stop></linearGradient><path d="M147.97 234.73L150.12 234.94L152.24 235.25L154.34 235.63L156.41 236.1L158.44 236.64L160.44 237.27L162.41 237.96L164.35 238.74L166.24 239.58L168.09 240.5L169.91 241.48L171.68 242.54L173.4 243.65L175.08 244.83L176.71 246.08L178.29 247.38L179.82 248.74L181.29 250.16L182.71 251.64L184.07 253.16L185.37 254.74L186.62 256.37L187.8 258.05L188.92 259.78L189.97 261.55L190.95 263.36L191.87 265.21L192.71 267.11L193.49 269.04L194.19 271.01L194.81 273.01L195.35 275.05L195.82 277.11L196.21 279.21L196.51 281.33L196.73 283.48L196.86 285.66L196.9 287.85L196.86 290.05L196.73 292.23L196.51 294.38L196.21 296.5L195.82 298.6L195.35 300.66L194.81 302.7L194.19 304.7L193.49 306.67L192.71 308.6L191.87 310.5L190.95 312.35L189.97 314.16L188.92 315.93L187.8 317.66L186.62 319.34L185.37 320.97L184.07 322.55L182.71 324.07L181.29 325.55L179.82 326.97L178.29 328.33L176.71 329.63L175.08 330.88L173.4 332.06L171.68 333.17L169.91 334.23L168.09 335.21L166.24 336.13L164.35 336.97L162.41 337.74L160.44 338.44L158.44 339.07L156.41 339.61L154.34 340.08L152.24 340.46L150.12 340.77L147.97 340.98L145.79 341.12L143.6 341.16L141.4 341.12L139.23 340.98L137.07 340.77L134.95 340.46L132.85 340.08L130.79 339.61L128.75 339.07L126.75 338.44L124.78 337.74L122.85 336.97L120.95 336.13L119.1 335.21L117.29 334.23L115.52 333.17L113.79 332.06L112.12 330.88L110.49 329.63L108.91 328.33L107.38 326.97L105.9 325.55L104.49 324.07L103.12 322.55L101.82 320.97L100.58 319.34L99.39 317.66L98.28 315.93L97.23 314.16L96.24 312.35L95.32 310.5L94.48 308.6L93.71 306.67L93.01 304.7L92.39 302.7L91.84 300.66L91.37 298.6L90.99 296.5L90.69 294.38L90.47 292.23L90.33 290.05L90.29 287.85L90.34 285.66L90.47 283.48L90.69 281.34L91 279.21L91.38 277.12L91.85 275.05L92.4 273.02L93.02 271.01L93.72 269.05L94.5 267.12L95.34 265.22L96.26 263.37L97.24 261.56L98.3 259.79L99.41 258.07L100.59 256.39L101.84 254.76L103.14 253.18L104.5 251.65L105.92 250.18L107.4 248.76L108.92 247.4L110.5 246.1L112.13 244.85L113.81 243.67L115.53 242.55L117.3 241.5L119.11 240.52L120.96 239.6L122.86 238.75L124.79 237.98L126.76 237.28L128.76 236.66L130.79 236.11L132.86 235.64L134.95 235.26L137.08 234.95L139.23 234.73L141.4 234.6L143.6 234.55L145.79 234.59L147.97 234.73ZM140.97 255.98L139.68 256.11L138.41 256.29L137.15 256.52L135.91 256.8L134.69 257.13L133.49 257.5L132.31 257.92L131.15 258.38L130.01 258.89L128.9 259.44L127.81 260.03L126.75 260.66L125.71 261.33L124.71 262.04L123.73 262.79L122.78 263.57L121.87 264.39L120.98 265.24L120.13 266.12L119.31 267.04L118.53 267.99L117.78 268.97L117.08 269.97L116.41 271.01L115.77 272.07L115.18 273.16L114.63 274.27L114.13 275.41L113.66 276.56L113.24 277.75L112.87 278.95L112.54 280.17L112.26 281.41L112.03 282.67L111.85 283.94L111.72 285.23L111.64 286.54L111.61 287.85L111.64 289.17L111.72 290.48L111.85 291.77L112.03 293.04L112.26 294.3L112.54 295.54L112.87 296.76L113.24 297.96L113.66 299.14L114.13 300.3L114.63 301.44L115.18 302.55L115.77 303.64L116.41 304.7L117.08 305.74L117.78 306.74L118.53 307.72L119.31 308.67L120.13 309.59L120.98 310.47L121.87 311.32L122.78 312.14L123.73 312.92L124.71 313.67L125.71 314.38L126.75 315.05L127.81 315.68L128.9 316.27L130.01 316.82L131.15 317.33L132.31 317.79L133.49 318.21L134.69 318.58L135.91 318.91L137.15 319.19L138.41 319.42L139.68 319.6L140.97 319.73L142.28 319.81L143.6 319.84L144.92 319.81L146.22 319.73L147.51 319.6L148.78 319.42L150.04 319.19L151.28 318.91L152.5 318.58L153.71 318.21L154.89 317.79L156.05 317.33L157.18 316.82L158.29 316.27L159.38 315.68L160.44 315.05L161.48 314.38L162.49 313.67L163.46 312.92L164.41 312.14L165.33 311.32L166.21 310.47L167.06 309.59L167.88 308.67L168.66 307.72L169.41 306.74L170.12 305.74L170.79 304.7L171.42 303.64L172.01 302.55L172.56 301.44L173.07 300.3L173.53 299.14L173.95 297.96L174.32 296.76L174.65 295.54L174.93 294.3L175.16 293.04L175.34 291.77L175.47 290.48L175.55 289.17L175.58 287.85L175.55 286.54L175.47 285.23L175.34 283.94L175.16 282.67L174.93 281.41L174.65 280.17L174.32 278.95L173.95 277.75L173.53 276.56L173.07 275.41L172.56 274.27L172.01 273.16L171.42 272.07L170.79 271.01L170.12 269.97L169.41 268.97L168.66 267.99L167.88 267.04L167.06 266.12L166.21 265.24L165.33 264.39L164.41 263.57L163.46 262.79L162.49 262.04L161.48 261.33L160.44 260.66L159.38 260.03L158.29 259.44L157.18 258.89L156.05 258.38L154.89 257.92L153.71 257.5L152.5 257.13L151.28 256.8L150.04 256.52L148.78 256.29L147.51 256.11L146.22 255.98L144.92 255.9L143.6 255.87L142.28 255.9L140.97 255.98Z" id="a1VYM7Ka8W"></path><linearGradient id="gradienta79Dm9uUs" gradientUnits="userSpaceOnUse" x1="201.84" y1="354.2" x2="90.45" y2="210.32"><stop style="stop-color: #003f8a;stop-opacity: 1" offset="0%"></stop><stop style="stop-color: #00d7df;stop-opacity: 1" offset="51.800000000000004%"></stop><stop style="stop-color: #006df0;stop-opacity: 1" offset="100%"></stop></linearGradient><path d="M558.34 75.03L563.07 75.51L567.74 76.18L572.35 77.04L576.89 78.06L581.37 79.27L585.77 80.64L590.1 82.18L594.35 83.88L598.51 85.74L602.59 87.76L606.58 89.93L610.47 92.24L614.26 94.7L617.95 97.3L621.53 100.03L625.01 102.9L628.37 105.9L631.61 109.02L634.73 112.26L637.73 115.62L640.6 119.09L643.33 122.68L645.93 126.37L648.39 130.16L650.7 134.05L652.87 138.04L654.89 142.11L656.75 146.28L658.45 150.53L659.99 154.85L661.36 159.26L662.56 163.74L663.59 168.28L664.45 172.89L665.12 177.56L665.6 182.29L665.9 187.07L666 191.9L666 383.81L665.9 388.64L665.6 393.42L665.12 398.15L664.45 402.82L663.59 407.43L662.56 411.97L661.36 416.45L659.99 420.85L658.45 425.18L656.75 429.43L654.89 433.6L652.87 437.67L650.7 441.66L648.39 445.55L645.93 449.34L643.33 453.03L640.6 456.62L637.73 460.09L634.73 463.45L631.61 466.69L628.37 469.81L625.01 472.81L621.53 475.68L617.95 478.41L614.26 481.01L610.47 483.47L606.58 485.78L602.59 487.95L598.51 489.97L594.35 491.83L590.1 493.53L585.77 495.07L581.37 496.44L576.89 497.65L572.35 498.67L567.74 499.53L563.07 500.2L558.34 500.68L553.56 500.98L548.73 501.08L548.73 575.71L548.72 576.03L548.71 576.35L548.68 576.67L548.65 576.99L548.61 577.3L548.55 577.61L548.49 577.92L548.42 578.23L548.35 578.53L548.26 578.83L548.16 579.13L548.06 579.43L547.94 579.72L547.82 580L547.69 580.29L547.56 580.56L547.41 580.84L547.26 581.11L547.1 581.37L546.93 581.63L546.75 581.89L546.57 582.14L546.38 582.38L546.18 582.62L545.98 582.85L545.77 583.08L545.55 583.3L545.32 583.52L545.09 583.73L544.85 583.93L544.61 584.13L544.36 584.31L544.1 584.5L543.84 584.67L543.57 584.84L543.3 585L543.02 585.15L542.73 585.29L542.44 585.43L542.15 585.56L541.85 585.68L541.54 585.79L541.24 585.89L540.94 585.98L540.63 586.06L540.32 586.13L540.01 586.19L539.7 586.24L539.39 586.29L539.08 586.32L538.77 586.35L538.46 586.36L538.15 586.37L537.83 586.37L537.52 586.36L537.21 586.34L536.91 586.31L536.6 586.27L536.29 586.22L535.99 586.16L535.68 586.1L535.38 586.03L535.08 585.94L534.79 585.85L534.49 585.75L534.2 585.64L533.91 585.53L533.63 585.4L533.35 585.27L533.07 585.13L532.79 584.97L532.52 584.82L532.26 584.65L532 584.47L531.74 584.29L531.49 584.1L531.24 583.9L531 583.69L530.76 583.47L530.53 583.25L448.36 501.08L122.27 501.08L117.44 500.98L112.66 500.68L107.93 500.2L103.26 499.53L98.65 498.67L94.11 497.65L89.63 496.44L85.23 495.07L80.9 493.53L76.65 491.83L72.49 489.97L68.41 487.95L64.42 485.78L60.53 483.47L56.74 481.01L53.05 478.41L49.47 475.68L45.99 472.81L42.63 469.81L39.39 466.69L36.27 463.45L33.27 460.09L30.4 456.62L27.67 453.03L25.07 449.34L22.61 445.55L20.3 441.66L18.13 437.67L16.11 433.6L14.25 429.43L12.55 425.18L11.01 420.85L9.64 416.45L8.44 411.97L7.41 407.43L6.55 402.82L5.88 398.15L5.4 393.42L5.1 388.64L5 383.81L5 191.9L5.1 187.07L5.4 182.29L5.88 177.56L6.55 172.89L7.41 168.28L8.44 163.74L9.64 159.26L11.01 154.85L12.55 150.53L14.25 146.28L16.11 142.11L18.13 138.04L20.3 134.05L22.61 130.16L25.07 126.37L27.67 122.68L30.4 119.09L33.27 115.62L36.27 112.26L39.39 109.02L42.63 105.9L45.99 102.9L49.47 100.03L53.05 97.3L56.74 94.7L60.53 92.24L64.42 89.93L68.41 87.76L72.49 85.74L76.65 83.88L80.9 82.18L85.23 80.64L89.63 79.27L94.11 78.06L98.65 77.04L103.26 76.18L107.93 75.51L112.66 75.03L117.44 74.73L122.27 74.63L548.73 74.63L553.56 74.73L558.34 75.03ZM118.32 96.04L114.41 96.28L110.54 96.67L106.72 97.22L102.95 97.92L99.23 98.76L95.56 99.74L91.96 100.87L88.42 102.13L84.94 103.52L81.54 105.04L78.2 106.69L74.94 108.46L71.76 110.36L68.65 112.37L65.63 114.5L62.7 116.73L59.86 119.08L57.11 121.53L54.46 124.09L51.9 126.74L49.45 129.49L47.11 132.33L44.87 135.26L42.74 138.28L40.73 141.38L38.84 144.57L37.06 147.83L35.41 151.17L33.89 154.57L32.5 158.05L31.24 161.59L30.12 165.19L29.13 168.86L28.29 172.58L27.59 176.35L27.05 180.17L26.65 184.04L26.41 187.95L26.32 191.9L26.32 383.81L26.41 387.76L26.65 391.67L27.05 395.54L27.59 399.36L28.29 403.13L29.13 406.85L30.12 410.52L31.24 414.12L32.5 417.66L33.89 421.14L35.41 424.54L37.06 427.88L38.84 431.14L40.73 434.33L42.74 437.43L44.87 440.45L47.11 443.38L49.45 446.22L51.9 448.97L54.46 451.62L57.11 454.18L59.86 456.63L62.7 458.98L65.63 461.21L68.65 463.34L71.76 465.35L74.94 467.25L78.2 469.02L81.54 470.67L84.94 472.19L88.42 473.58L91.96 474.84L95.56 475.97L99.23 476.95L102.95 477.79L106.72 478.49L110.54 479.04L114.41 479.43L118.32 479.67L122.27 479.76L452.77 479.76L452.99 479.76L453.2 479.77L453.41 479.78L453.62 479.79L453.83 479.81L454.04 479.83L454.24 479.86L454.45 479.89L454.66 479.93L454.86 479.96L455.07 480.01L455.27 480.05L455.47 480.11L455.67 480.16L455.87 480.22L456.07 480.28L456.27 480.35L456.47 480.42L456.66 480.49L456.85 480.57L457.04 480.65L457.23 480.74L457.42 480.83L457.61 480.92L457.79 481.01L457.98 481.11L458.16 481.22L458.34 481.33L458.51 481.44L458.69 481.55L458.86 481.67L459.03 481.79L459.2 481.91L459.37 482.04L459.53 482.17L459.69 482.31L459.85 482.45L460.01 482.59L460.16 482.73L460.31 482.88L527.4 549.97L527.4 490.42L527.41 489.98L527.44 489.55L527.48 489.11L527.54 488.69L527.62 488.27L527.71 487.86L527.82 487.45L527.95 487.05L528.09 486.66L528.24 486.27L528.41 485.89L528.59 485.52L528.79 485.16L529 484.8L529.22 484.46L529.46 484.12L529.71 483.8L529.97 483.48L530.24 483.18L530.53 482.88L530.82 482.6L531.13 482.32L531.44 482.06L531.77 481.82L532.1 481.58L532.45 481.36L532.8 481.15L533.17 480.95L533.54 480.76L533.91 480.6L534.3 480.44L534.69 480.3L535.1 480.18L535.5 480.07L535.92 479.97L536.34 479.9L536.76 479.84L537.19 479.79L537.63 479.77L538.06 479.76L548.73 479.76L552.68 479.67L556.59 479.43L560.46 479.04L564.28 478.49L568.05 477.79L571.77 476.95L575.44 475.97L579.04 474.84L582.58 473.58L586.06 472.19L589.46 470.67L592.8 469.02L596.06 467.25L599.24 465.35L602.35 463.34L605.37 461.21L608.3 458.98L611.14 456.63L613.89 454.18L616.54 451.62L619.1 448.97L621.55 446.22L623.89 443.38L626.13 440.45L628.26 437.43L630.27 434.33L632.16 431.14L633.94 427.88L635.59 424.54L637.11 421.14L638.5 417.66L639.76 414.12L640.88 410.52L641.87 406.85L642.71 403.13L643.41 399.36L643.95 395.54L644.35 391.67L644.59 387.76L644.68 383.81L644.68 191.9L644.59 187.95L644.35 184.04L643.95 180.17L643.41 176.35L642.71 172.58L641.87 168.86L640.88 165.19L639.76 161.59L638.5 158.05L637.11 154.57L635.59 151.17L633.94 147.83L632.16 144.57L630.27 141.38L628.26 138.28L626.13 135.26L623.89 132.33L621.55 129.49L619.1 126.74L616.54 124.09L613.89 121.53L611.14 119.08L608.3 116.73L605.37 114.5L602.35 112.37L599.24 110.36L596.06 108.46L592.8 106.69L589.46 105.04L586.06 103.52L582.58 102.13L579.04 100.87L575.44 99.74L571.77 98.76L568.05 97.92L564.28 97.22L560.46 96.67L556.59 96.28L552.68 96.04L548.73 95.95L122.27 95.95L118.32 96.04Z" id="d1q7G3xjpH"></path><linearGradient id="gradientd1XCHDLnGU" gradientUnits="userSpaceOnUse" x1="696.59" y1="648.94" x2="6" y2="-41.64"><stop style="stop-color: #003f8a;stop-opacity: 1" offset="0%"></stop><stop style="stop-color: #00d7df;stop-opacity: 1" offset="51.800000000000004%"></stop><stop style="stop-color: #006df0;stop-opacity: 1" offset="100%"></stop></linearGradient></defs><g><g><g><use xlink:href="#f3zjzxudGe" opacity="1" fill="url(#gradienta1yKSKBtBc)"></use><g><use xlink:href="#f3zjzxudGe" opacity="1" fill-opacity="0" stroke="#000000" stroke-width="1" stroke-opacity="0"></use></g></g><g><use xlink:href="#azDS6T6ZA" opacity="1" fill="url(#gradienta11YtpWu2X)"></use><g><use xlink:href="#azDS6T6ZA" opacity="1" fill-opacity="0" stroke="#000000" stroke-width="1" stroke-opacity="0"></use></g></g><g><use xlink:href="#a1VYM7Ka8W" opacity="1" fill="url(#gradienta79Dm9uUs)"></use><g><use xlink:href="#a1VYM7Ka8W" opacity="1" fill-opacity="0" stroke="#000000" stroke-width="1" stroke-opacity="0"></use></g></g><g><use xlink:href="#d1q7G3xjpH" opacity="1" fill="url(#gradientd1XCHDLnGU)"></use><g><use xlink:href="#d1q7G3xjpH" opacity="1" fill-opacity="0" stroke="#000000" stroke-width="1" stroke-opacity="0"></use></g></g></g></g></svg>